<?xml version="1.0" encoding="UTF-8"?>
<!DOCTYPE svg PUBLIC "-//W3C//DTD SVG 1.1//EN" "http://www.w3.org/Graphics/SVG/1.1/DTD/svg11.dtd">
<!-- Creator: CorelDRAW (OEM Version) -->
<svg xmlns="http://www.w3.org/2000/svg" xml:space="preserve" width="1562px" height="481px" version="1.1" shape-rendering="geometricPrecision" text-rendering="geometricPrecision" image-rendering="optimizeQuality" fill-rule="evenodd" clip-rule="evenodd"
viewBox="0 0 1785.73 549.85"
 xmlns:xlink="http://www.w3.org/1999/xlink"
 xmlns:xodm="http://www.corel.com/coreldraw/odm/2003">
 <g id="Layer_x0020_1">
  <metadata id="CorelCorpID_0Corel-Layer"/>
  <polygon fill="none" points="0,0 1785.73,0 1785.73,549.85 0,549.85 "/>
  <g id="_2682969892528">
   <path fill="#8F1F8D" fill-rule="nonzero" d="M176.74 372.49l0 -121.1 -44.28 0 0 -28.63 126.25 0 0 28.63 -44.28 0 0 121.1 -37.69 0zm182.93 3.08c-21.35,0 -37.72,-5.08 -49.11,-15.27 -11.37,-10.19 -17.07,-24.71 -17.07,-43.56 0,-18.43 5.33,-33.12 15.93,-44.14 10.61,-10.98 25.47,-16.47 44.52,-16.47 17.33,0 30.38,4.66 39.1,14 8.75,9.3 13.11,22.65 13.11,40.06l0 12.66 -77.44 0c0.35,5.25 1.44,9.61 3.33,13.15 1.89,3.53 4.36,6.31 7.49,8.41 3.01,2.06 6.55,3.57 10.57,4.46 4.05,0.93 8.44,1.37 13.21,1.37 4.12,0 8.14,-0.44 12.12,-1.37 3.98,-0.93 7.62,-2.13 10.91,-3.64 2.89,-1.3 5.56,-2.68 8,-4.19 2.47,-1.51 4.46,-2.81 6.01,-3.98l3.74 0 0 29.14c-2.88,1.14 -5.53,2.2 -7.9,3.16 -2.4,1 -5.66,1.99 -9.81,2.99 -3.85,0.99 -7.79,1.78 -11.84,2.37 -4.09,0.58 -9.03,0.85 -14.87,0.85zm11.88 -73.93c-0.21,-7.52 -1.96,-13.25 -5.22,-17.16 -3.29,-3.95 -8.3,-5.91 -15.07,-5.91 -6.93,0 -12.32,2.06 -16.2,6.22 -3.88,4.11 -6.04,9.75 -6.45,16.85l42.94 0zm137.63 73.93c-9.31,0 -17.82,-1.16 -25.58,-3.53 -7.72,-2.33 -14.45,-5.94 -20.15,-10.85 -5.62,-4.87 -10.02,-11.05 -13.14,-18.43 -3.16,-7.41 -4.74,-16.13 -4.74,-26.19 0,-10.81 1.72,-19.98 5.12,-27.56 3.43,-7.59 8.06,-13.8 13.86,-18.71 5.63,-4.67 12.26,-8.13 19.88,-10.4 7.58,-2.23 15.51,-3.36 23.75,-3.36 6.25,0 12.46,0.72 18.71,2.16 6.21,1.44 12.49,3.71 18.77,6.86l0 30.11 -4.53 0c-1.41,-1.34 -3.12,-2.82 -5.18,-4.4 -2.03,-1.61 -4.26,-3.09 -6.66,-4.39 -2.58,-1.41 -5.46,-2.61 -8.65,-3.57 -3.23,-0.96 -6.83,-1.44 -10.78,-1.44 -8.99,0 -15.93,3.12 -20.87,9.4 -4.91,6.25 -7.38,14.69 -7.38,25.3 0,11.33 2.65,19.77 7.9,25.33 5.25,5.56 12.25,8.34 20.97,8.34 4.43,0 8.31,-0.51 11.67,-1.51 3.33,-0.99 6.21,-2.23 8.65,-3.64 2.33,-1.4 4.33,-2.84 6.01,-4.35 1.68,-1.52 3.12,-2.89 4.32,-4.09l4.53 0 0 30.17c-2.02,0.86 -4.32,1.89 -6.96,3.02 -2.68,1.14 -5.36,2.1 -8.11,2.82 -3.43,0.92 -6.62,1.64 -9.61,2.16 -2.98,0.52 -6.9,0.75 -11.8,0.75zm188.87 -3.08l-35.22 0 0 -55.95c0,-4.57 -0.17,-9.1 -0.55,-13.63 -0.38,-4.53 -1.06,-7.86 -2.09,-9.99 -1.2,-2.54 -2.95,-4.39 -5.25,-5.49 -2.3,-1.1 -5.36,-1.65 -9.2,-1.65 -2.92,0 -5.84,0.55 -8.82,1.61 -2.96,1.07 -6.15,2.79 -9.51,5.12l0 79.98 -35.22 0 0 -156.53 35.22 0 0 56.16c5.76,-4.91 11.39,-8.72 16.85,-11.46 5.46,-2.75 11.53,-4.12 18.16,-4.12 11.53,0 20.35,3.63 26.46,10.91 6.11,7.24 9.17,17.78 9.17,31.58l0 73.46zm271.18 0l-37.48 0 0 -99.27 -27.26 64.05 -25.6 0 -27.26 -64.05 0 99.27 -35.42 0 0 -149.73 43.35 0 33.2 73.9 33.05 -73.9 43.42 0 0 149.73zm116.55 3.08c-21.35,0 -37.72,-5.08 -49.12,-15.27 -11.36,-10.19 -17.06,-24.71 -17.06,-43.56 0,-18.43 5.32,-33.12 15.93,-44.14 10.61,-10.98 25.47,-16.47 44.52,-16.47 17.33,0 30.38,4.66 39.09,14 8.76,9.3 13.12,22.65 13.12,40.06l0 12.66 -77.44 0c0.34,5.25 1.44,9.61 3.33,13.15 1.89,3.53 4.36,6.31 7.48,8.41 3.02,2.06 6.56,3.57 10.57,4.46 4.05,0.93 8.45,1.37 13.22,1.37 4.12,0 8.13,-0.44 12.12,-1.37 3.98,-0.93 7.62,-2.13 10.91,-3.64 2.88,-1.3 5.56,-2.68 8,-4.19 2.47,-1.51 4.46,-2.81 6,-3.98l3.75 0 0 29.14c-2.89,1.14 -5.53,2.2 -7.9,3.16 -2.4,1 -5.66,1.99 -9.82,2.99 -3.84,0.99 -7.79,1.78 -11.84,2.37 -4.08,0.58 -9.02,0.85 -14.86,0.85zm11.88 -73.93c-0.21,-7.52 -1.96,-13.25 -5.22,-17.16 -3.3,-3.95 -8.31,-5.91 -15.07,-5.91 -6.93,0 -12.32,2.06 -16.2,6.22 -3.88,4.11 -6.04,9.75 -6.45,16.85l42.94 0zm185.02 70.85l-35.21 0 0 -11.78c-2.3,1.89 -4.91,3.92 -7.83,6.04 -2.92,2.17 -5.49,3.74 -7.72,4.84 -2.82,1.34 -5.6,2.34 -8.38,2.99 -2.74,0.65 -6.04,0.99 -9.88,0.99 -12.91,0 -23.14,-5.32 -30.69,-15.96 -7.52,-10.67 -11.29,-24.88 -11.29,-42.7 0,-9.85 1.27,-18.39 3.84,-25.6 2.54,-7.24 6.08,-13.56 10.58,-18.92 4.11,-4.87 9.09,-8.75 14.96,-11.6 5.84,-2.84 12.01,-4.25 18.57,-4.25 5.9,0 10.78,0.61 14.55,1.85 3.81,1.24 8.24,3.19 13.29,5.8l0 -48.23 35.21 0 0 156.53zm-35.21 -31.07l0 -55.71c-1.75,-0.86 -4.05,-1.58 -6.87,-2.16 -2.85,-0.58 -5.28,-0.86 -7.27,-0.86 -8.52,0 -14.9,2.96 -19.19,8.89 -4.29,5.94 -6.42,14.21 -6.42,24.85 0,11.19 1.72,19.29 5.11,24.27 3.4,4.98 8.93,7.48 16.55,7.48 3.09,0 6.21,-0.62 9.4,-1.82 3.16,-1.2 6.04,-2.84 8.69,-4.94zm127.05 31.07l-35.22 0 0 -112.86 35.22 0 0 112.86zm1.03 -128.93l-37.28 0 0 -27.39 37.28 0 0 27.39zm117.89 99.44l0 -23.65c-5.9,0.62 -10.71,1.13 -14.35,1.58 -3.67,0.41 -7.24,1.27 -10.78,2.57 -3.05,1.07 -5.42,2.72 -7.14,4.88 -1.68,2.2 -2.54,5.11 -2.54,8.75 0,5.32 1.41,8.96 4.23,10.95 2.85,1.99 7,2.99 12.53,2.99 3.05,0 6.17,-0.72 9.37,-2.13 3.19,-1.41 6.07,-3.4 8.68,-5.94zm0 17.51c-2.4,2.02 -4.57,3.84 -6.45,5.45 -1.93,1.58 -4.47,3.2 -7.69,4.81 -3.13,1.54 -6.18,2.75 -9.17,3.57 -2.95,0.82 -7.1,1.23 -12.46,1.23 -9.95,0 -18.22,-3.36 -24.78,-10.09 -6.59,-6.72 -9.89,-15.17 -9.89,-25.4 0,-8.41 1.69,-15.2 5.02,-20.35 3.33,-5.18 8.13,-9.3 14.41,-12.32 6.35,-3.09 13.94,-5.26 22.76,-6.46 8.82,-1.2 18.3,-2.13 28.46,-2.81l0 -0.62c0,-6.21 -2.3,-10.54 -6.87,-12.91 -4.57,-2.36 -11.43,-3.57 -20.56,-3.57 -4.15,0 -8.99,0.76 -14.52,2.27 -5.53,1.51 -10.95,3.43 -16.24,5.77l-2.98 0 0 -27.33c3.5,-0.99 9.1,-2.19 16.89,-3.57 7.75,-1.37 15.61,-2.05 23.51,-2.05 19.43,0 33.57,3.22 42.46,9.71 8.89,6.49 13.32,16.37 13.32,29.69l0 76.96 -35.22 0 0 -11.98z"/>
   <path fill="#9C1C7E" fill-rule="nonzero" d="M1587.92 242.57l0 -49.01 21.72 0c4.37,0 7.69,0.44 9.96,1.32 2.27,0.88 4.08,2.43 5.44,4.66 1.36,2.22 2.03,4.69 2.03,7.38 0,3.48 -1.13,6.41 -3.37,8.8 -2.25,2.38 -5.72,3.89 -10.42,4.54 1.72,0.82 3.02,1.64 3.91,2.44 1.9,1.73 3.69,3.91 5.36,6.52l8.48 13.35 -8.1 0 -6.48 -10.2c-1.88,-2.95 -3.44,-5.2 -4.67,-6.76 -1.23,-1.57 -2.32,-2.65 -3.29,-3.28 -0.96,-0.61 -1.95,-1.05 -2.96,-1.3 -0.73,-0.15 -1.93,-0.23 -3.6,-0.23l-7.51 0 0 21.77 -6.5 0zm6.5 -27.38l13.92 0c2.97,0 5.27,-0.31 6.93,-0.92 1.67,-0.61 2.94,-1.59 3.79,-2.95 0.87,-1.34 1.3,-2.8 1.3,-4.39 0,-2.32 -0.83,-4.23 -2.51,-5.73 -1.67,-1.49 -4.32,-2.23 -7.94,-2.23l-15.49 0 0 16.22z"/>
   <path fill="none" stroke="#8F1F8D" stroke-width="2.7" stroke-miterlimit="22.9256" d="M1609.47 174.27c24.19,0 43.8,19.61 43.8,43.8 0,24.18 -19.61,43.79 -43.8,43.79 -24.18,0 -43.79,-19.61 -43.79,-43.79 0,-24.19 19.61,-43.8 43.79,-43.8z"/>
  </g>
 </g>
</svg>
