<?xml version="1.0" encoding="UTF-8"?>
<!DOCTYPE svg PUBLIC "-//W3C//DTD SVG 1.1//EN" "http://www.w3.org/Graphics/SVG/1.1/DTD/svg11.dtd">
<!-- Creator: CorelDRAW (OEM Version) -->
<svg xmlns="http://www.w3.org/2000/svg" xml:space="preserve" width="1821px" height="665px" version="1.1" shape-rendering="geometricPrecision" text-rendering="geometricPrecision" image-rendering="optimizeQuality" fill-rule="evenodd" clip-rule="evenodd"
viewBox="0 0 2090.77 763.05"
 xmlns:xlink="http://www.w3.org/1999/xlink"
 xmlns:xodm="http://www.corel.com/coreldraw/odm/2003">
 <g id="Layer_x0020_1">
  <metadata id="CorelCorpID_0Corel-Layer"/>
  <g id="_2682887487200">
   <path fill="#8F1F8D" fill-rule="nonzero" d="M550 423.56l0 -121.64 -44.48 0 0 -28.76 126.82 0 0 28.76 -44.48 0 0 121.64 -37.86 0zm183.77 3.11c-21.45,0 -37.9,-5.11 -49.34,-15.35 -11.42,-10.24 -17.14,-24.82 -17.14,-43.75 0,-18.52 5.35,-33.28 16,-44.34 10.65,-11.04 25.58,-16.55 44.72,-16.55 17.41,0 30.51,4.68 39.27,14.06 8.79,9.35 13.17,22.76 13.17,40.24l0 12.73 -77.78 0c0.34,5.27 1.45,9.65 3.34,13.2 1.9,3.55 4.38,6.34 7.52,8.45 3.03,2.07 6.58,3.59 10.62,4.48 4.07,0.93 8.48,1.38 13.27,1.38 4.14,0 8.18,-0.45 12.17,-1.38 4,-0.93 7.66,-2.14 10.97,-3.65 2.89,-1.31 5.59,-2.69 8.03,-4.21 2.49,-1.52 4.49,-2.83 6.04,-4l3.76 0 0 29.27c-2.9,1.14 -5.56,2.21 -7.94,3.18 -2.41,1 -5.68,2 -9.86,3 -3.86,1 -7.82,1.79 -11.89,2.37 -4.11,0.59 -9.07,0.87 -14.93,0.87zm11.93 -74.27c-0.21,-7.55 -1.97,-13.31 -5.24,-17.24 -3.31,-3.97 -8.35,-5.93 -15.14,-5.93 -6.96,0 -12.38,2.07 -16.27,6.24 -3.9,4.13 -6.07,9.79 -6.49,16.93l43.14 0zm138.25 74.27c-9.35,0 -17.9,-1.17 -25.69,-3.55 -7.76,-2.35 -14.52,-5.97 -20.24,-10.9 -5.65,-4.9 -10.07,-11.1 -13.2,-18.52 -3.18,-7.44 -4.76,-16.2 -4.76,-26.31 0,-10.86 1.72,-20.06 5.13,-27.68 3.45,-7.62 8.11,-13.86 13.93,-18.79 5.66,-4.69 12.31,-8.18 19.97,-10.45 7.62,-2.24 15.58,-3.38 23.86,-3.38 6.27,0 12.52,0.72 18.79,2.17 6.24,1.45 12.55,3.73 18.86,6.9l0 30.24 -4.55 0c-1.41,-1.35 -3.14,-2.83 -5.21,-4.42 -2.03,-1.62 -4.27,-3.1 -6.69,-4.41 -2.58,-1.41 -5.48,-2.62 -8.68,-3.59 -3.25,-0.96 -6.87,-1.44 -10.83,-1.44 -9.04,0 -16,3.13 -20.97,9.44 -4.93,6.28 -7.41,14.76 -7.41,25.41 0,11.38 2.65,19.87 7.93,25.45 5.28,5.59 12.31,8.38 21.07,8.38 4.45,0 8.34,-0.52 11.72,-1.52 3.35,-1 6.24,-2.24 8.69,-3.65 2.35,-1.42 4.35,-2.86 6.03,-4.38 1.69,-1.52 3.14,-2.9 4.35,-4.1l4.55 0 0 30.3c-2.03,0.87 -4.34,1.9 -7,3.04 -2.69,1.14 -5.38,2.1 -8.14,2.83 -3.44,0.93 -6.65,1.65 -9.65,2.17 -3,0.52 -6.93,0.76 -11.86,0.76zm189.73 -3.11l-35.38 0 0 -56.2c0,-4.58 -0.17,-9.14 -0.55,-13.69 -0.38,-4.55 -1.07,-7.89 -2.1,-10.03 -1.21,-2.55 -2.97,-4.42 -5.28,-5.52 -2.31,-1.1 -5.38,-1.65 -9.24,-1.65 -2.93,0 -5.86,0.55 -8.86,1.62 -2.97,1.07 -6.17,2.79 -9.55,5.13l0 80.34 -35.38 0 0 -157.23 35.38 0 0 56.41c5.79,-4.93 11.44,-8.75 16.93,-11.51 5.48,-2.76 11.58,-4.14 18.24,-4.14 11.58,0 20.44,3.65 26.58,10.96 6.14,7.28 9.21,17.86 9.21,31.73l0 73.78zm272.41 0l-37.65 0 0 -99.71 -27.38 64.34 -25.72 0 -27.38 -64.34 0 99.71 -35.58 0 0 -150.4 43.55 0 33.34 74.24 33.2 -74.24 43.62 0 0 150.4zm117.08 3.11c-21.45,0 -37.89,-5.11 -49.34,-15.35 -11.41,-10.24 -17.14,-24.82 -17.14,-43.75 0,-18.52 5.35,-33.28 16,-44.34 10.66,-11.04 25.58,-16.55 44.72,-16.55 17.41,0 30.52,4.68 39.28,14.06 8.79,9.35 13.17,22.76 13.17,40.24l0 12.73 -77.79 0c0.34,5.27 1.45,9.65 3.34,13.2 1.9,3.55 4.38,6.34 7.52,8.45 3.03,2.07 6.59,3.59 10.62,4.48 4.07,0.93 8.48,1.38 13.27,1.38 4.14,0 8.18,-0.45 12.18,-1.38 4,-0.93 7.65,-2.14 10.96,-3.65 2.9,-1.31 5.59,-2.69 8.04,-4.21 2.48,-1.52 4.48,-2.83 6.03,-4l3.76 0 0 29.27c-2.9,1.14 -5.55,2.21 -7.93,3.18 -2.42,1 -5.69,2 -9.86,3 -3.87,1 -7.83,1.79 -11.9,2.37 -4.1,0.59 -9.07,0.87 -14.93,0.87zm11.93 -74.27c-0.21,-7.55 -1.96,-13.31 -5.24,-17.24 -3.31,-3.97 -8.34,-5.93 -15.14,-5.93 -6.96,0 -12.38,2.07 -16.27,6.24 -3.9,4.13 -6.07,9.79 -6.48,16.93l43.13 0zm185.87 71.16l-35.38 0 0 -11.82c-2.31,1.89 -4.93,3.93 -7.86,6.07 -2.93,2.17 -5.52,3.75 -7.76,4.86 -2.83,1.34 -5.62,2.34 -8.41,3 -2.76,0.65 -6.07,1 -9.93,1 -12.97,0 -23.24,-5.35 -30.83,-16.04 -7.55,-10.72 -11.34,-24.99 -11.34,-42.89 0,-9.9 1.27,-18.48 3.86,-25.72 2.55,-7.28 6.1,-13.62 10.62,-19 4.14,-4.9 9.14,-8.79 15.03,-11.66 5.87,-2.86 12.07,-4.27 18.66,-4.27 5.93,0 10.82,0.62 14.62,1.86 3.82,1.24 8.27,3.21 13.34,5.83l0 -48.45 35.38 0 0 157.23zm-35.38 -31.2l0 -55.96c-1.76,-0.86 -4.07,-1.59 -6.9,-2.17 -2.86,-0.59 -5.3,-0.87 -7.3,-0.87 -8.56,0 -14.97,2.97 -19.28,8.93 -4.31,5.97 -6.45,14.28 -6.45,24.97 0,11.24 1.73,19.38 5.14,24.38 3.41,4.99 8.96,7.51 16.62,7.51 3.1,0 6.24,-0.62 9.45,-1.82 3.17,-1.21 6.07,-2.87 8.72,-4.97zm127.63 31.2l-35.38 0 0 -113.37 35.38 0 0 113.37zm1.04 -129.51l-37.45 0 0 -27.51 37.45 0 0 27.51zm118.42 99.89l0 -23.75c-5.93,0.62 -10.76,1.14 -14.41,1.58 -3.69,0.42 -7.28,1.28 -10.83,2.59 -3.07,1.07 -5.45,2.72 -7.17,4.9 -1.69,2.2 -2.55,5.13 -2.55,8.79 0,5.34 1.41,9 4.24,11 2.86,2 7.03,3 12.58,3 3.07,0 6.21,-0.73 9.42,-2.14 3.2,-1.41 6.1,-3.41 8.72,-5.97zm0 17.59c-2.41,2.03 -4.59,3.86 -6.48,5.48 -1.93,1.59 -4.49,3.21 -7.73,4.83 -3.13,1.55 -6.2,2.76 -9.2,3.59 -2.97,0.82 -7.14,1.24 -12.52,1.24 -10,0 -18.31,-3.38 -24.89,-10.14 -6.62,-6.76 -9.94,-15.24 -9.94,-25.52 0,-8.44 1.7,-15.27 5.04,-20.44 3.34,-5.21 8.17,-9.35 14.48,-12.38 6.38,-3.1 14,-5.28 22.86,-6.48 8.86,-1.21 18.38,-2.14 28.59,-2.83l0 -0.62c0,-6.24 -2.31,-10.59 -6.9,-12.97 -4.59,-2.37 -11.48,-3.58 -20.65,-3.58 -4.18,0 -9.04,0.76 -14.59,2.27 -5.55,1.52 -11,3.45 -16.31,5.8l-3 0 0 -27.45c3.52,-1 9.14,-2.21 16.97,-3.59 7.79,-1.38 15.68,-2.06 23.62,-2.06 19.51,0 33.72,3.24 42.65,9.75 8.93,6.52 13.38,16.45 13.38,29.83l0 77.3 -35.38 0 0 -12.03z"/>
   <path fill="#8F1F8D" fill-rule="nonzero" d="M668.79 527.49c3.19,0 6.1,0.43 8.71,1.27 2.61,0.85 4.84,2.06 6.7,3.63 1.86,1.56 3.3,3.44 4.31,5.62 1.01,2.19 1.51,4.65 1.51,7.39 0,3.52 -0.83,6.48 -2.49,8.86 -1.67,2.38 -4.03,4.19 -7.1,5.43 3.92,0.98 6.99,2.74 9.2,5.29 2.22,2.54 3.33,5.87 3.33,9.98 0,2.74 -0.5,5.23 -1.52,7.48 -1.01,2.26 -2.44,4.16 -4.3,5.73 -1.86,1.57 -4.1,2.77 -6.71,3.62 -2.61,0.85 -5.51,1.27 -8.71,1.27l-29.07 0 0 -65.57 26.14 0zm-1.37 29.26c4.24,0 7.6,-0.99 10.08,-2.98 2.48,-1.99 3.72,-4.65 3.72,-7.98 0,-3.32 -1.24,-5.9 -3.72,-7.73 -2.48,-1.83 -5.84,-2.74 -10.08,-2.74l-16.45 0 0 21.43 16.45 0zm2.93 28.48c4.24,0 7.6,-0.94 10.08,-2.83 2.48,-1.9 3.72,-4.57 3.72,-8.03 0,-3.39 -1.24,-6.03 -3.72,-7.93 -2.48,-1.89 -5.84,-2.84 -10.08,-2.84l-19.38 0 0 21.63 19.38 0zm82.28 7.83l-7.83 0 0 -9.59c-1.96,3.26 -4.57,5.84 -7.83,7.73 -3.26,1.9 -6.95,2.84 -11.06,2.84 -2.81,0 -5.32,-0.47 -7.54,-1.42 -2.22,-0.94 -4.09,-2.23 -5.63,-3.86 -1.53,-1.63 -2.69,-3.57 -3.47,-5.83 -0.78,-2.25 -1.17,-4.68 -1.17,-7.29l0 -32.68 7.82 0 0 31.12c0,4.11 1.18,7.22 3.53,9.34 2.35,2.12 5.38,3.18 9.1,3.18 2.28,0 4.39,-0.53 6.31,-1.61 1.93,-1.08 3.61,-2.48 5.04,-4.21 1.44,-1.73 2.6,-3.65 3.48,-5.77 0.88,-2.12 1.35,-4.26 1.42,-6.41l0 -25.64 7.83 0 0 50.1zm16.21 -65.67c0,-1.63 0.55,-3 1.66,-4.11 1.11,-1.11 2.48,-1.66 4.11,-1.66 1.63,0 3,0.55 4.11,1.66 1.11,1.11 1.67,2.48 1.67,4.11 0,1.63 -0.56,3.01 -1.67,4.11 -1.11,1.11 -2.48,1.67 -4.11,1.67 -1.63,0 -3,-0.56 -4.11,-1.67 -1.11,-1.1 -1.66,-2.48 -1.66,-4.11zm1.86 15.57l7.83 0 0 50.1 -7.83 0 0 -50.1zm25.9 -20.36l7.83 0 0 70.46 -7.83 0 0 -70.46zm21.98 45.51c0,-3.66 0.64,-7.07 1.91,-10.23 1.27,-3.17 3.02,-5.92 5.24,-8.27 2.22,-2.35 4.86,-4.21 7.93,-5.58 3.06,-1.37 6.39,-2.05 9.98,-2.05 4.5,0 8.22,0.8 11.16,2.39 2.93,1.6 5.31,3.77 7.14,6.51l0 -28.28 7.83 0 0 70.46 -7.83 0 0 -7.92c-1.83,2.74 -4.21,4.89 -7.14,6.46 -2.94,1.56 -6.66,2.35 -11.16,2.35 -3.59,0 -6.92,-0.69 -9.98,-2.06 -3.07,-1.37 -5.71,-3.23 -7.93,-5.58 -2.22,-2.35 -3.97,-5.09 -5.24,-8.22 -1.27,-3.13 -1.91,-6.46 -1.91,-9.98zm43.36 -3.92c-0.39,-2.15 -1.09,-4.12 -2.1,-5.92 -1.01,-1.79 -2.27,-3.33 -3.77,-4.6 -1.5,-1.27 -3.23,-2.25 -5.19,-2.93 -1.96,-0.69 -4.05,-1.03 -6.26,-1.03 -2.74,0 -5.22,0.5 -7.44,1.51 -2.22,1.02 -4.08,2.37 -5.58,4.07 -1.5,1.69 -2.66,3.65 -3.47,5.87 -0.82,2.22 -1.23,4.53 -1.23,6.95 0,2.35 0.41,4.61 1.23,6.8 0.81,2.19 1.97,4.11 3.47,5.77 1.5,1.67 3.36,3.01 5.58,4.02 2.22,1.01 4.7,1.51 7.44,1.51 2.35,0 4.5,-0.37 6.46,-1.12 1.95,-0.75 3.68,-1.76 5.18,-3.04 1.51,-1.27 2.74,-2.75 3.72,-4.45 0.98,-1.7 1.63,-3.52 1.96,-5.48l0 -7.93zm24.04 -36.8c0,-1.63 0.56,-3 1.67,-4.11 1.1,-1.11 2.47,-1.66 4.11,-1.66 1.63,0 3,0.55 4.11,1.66 1.11,1.11 1.66,2.48 1.66,4.11 0,1.63 -0.55,3.01 -1.66,4.11 -1.11,1.11 -2.48,1.67 -4.11,1.67 -1.64,0 -3.01,-0.56 -4.11,-1.67 -1.11,-1.1 -1.67,-2.48 -1.67,-4.11zm1.86 15.57l7.83 0 0 50.1 -7.83 0 0 -50.1zm25.9 0l7.83 0 0 9.59c1.96,-3.27 4.57,-5.84 7.83,-7.74 3.26,-1.89 6.95,-2.83 11.06,-2.83 2.87,0 5.4,0.47 7.58,1.42 2.19,0.94 4.05,2.23 5.58,3.86 1.54,1.63 2.69,3.57 3.48,5.82 0.78,2.26 1.17,4.69 1.17,7.3l0 32.68 -7.83 0 0 -31.12c0,-4.11 -1.17,-7.23 -3.52,-9.34 -2.35,-2.13 -5.38,-3.19 -9.1,-3.19 -2.29,0 -4.39,0.54 -6.32,1.62 -1.92,1.08 -3.6,2.48 -5.04,4.21 -1.43,1.73 -2.57,3.65 -3.42,5.77 -0.85,2.12 -1.34,4.26 -1.47,6.41l0 25.64 -7.83 0 0 -50.1zm109.97 47.95c0,7.9 -2.09,13.87 -6.26,17.91 -4.18,4.05 -10.34,6.07 -18.5,6.07 -4.18,0 -7.67,-0.46 -10.47,-1.37 -2.81,-0.91 -5.09,-2.11 -6.85,-3.57 -1.76,-1.47 -3.07,-3.13 -3.92,-5 -0.84,-1.85 -1.37,-3.7 -1.56,-5.52l8.41 0c0.33,1.5 0.92,2.75 1.77,3.76 0.84,1.02 1.9,1.85 3.18,2.5 1.27,0.65 2.7,1.11 4.3,1.37 1.6,0.26 3.28,0.39 5.04,0.39 11.36,0 17.03,-5.51 17.03,-16.54l0 -6.85c-1.82,2.74 -4.22,4.91 -7.19,6.51 -2.97,1.6 -6.71,2.4 -11.21,2.4 -3.59,0 -6.91,-0.67 -9.98,-2.01 -3.07,-1.34 -5.71,-3.16 -7.93,-5.48 -2.22,-2.32 -3.96,-5.01 -5.23,-8.07 -1.27,-3.07 -1.91,-6.33 -1.91,-9.79 0,-3.59 0.64,-6.93 1.91,-10.03 1.27,-3.1 3.01,-5.81 5.23,-8.13 2.22,-2.31 4.86,-4.14 7.93,-5.48 3.07,-1.34 6.39,-2 9.98,-2 4.5,0 8.24,0.8 11.21,2.39 2.97,1.6 5.37,3.81 7.19,6.61l0 -8.02 7.83 0 0 47.95zm-42.96 -23.29c0,2.28 0.41,4.48 1.22,6.6 0.82,2.12 1.97,4 3.48,5.63 1.5,1.63 3.35,2.94 5.57,3.92 2.22,0.97 4.7,1.46 7.44,1.46 2.42,0 4.62,-0.39 6.61,-1.17 1.99,-0.78 3.73,-1.83 5.23,-3.13 1.5,-1.31 2.74,-2.86 3.72,-4.65 0.98,-1.79 1.6,-3.7 1.86,-5.73l0 -5.77c-0.32,-2.22 -0.99,-4.26 -2,-6.12 -1.01,-1.86 -2.27,-3.44 -3.77,-4.74 -1.5,-1.31 -3.25,-2.34 -5.24,-3.09 -1.99,-0.75 -4.13,-1.12 -6.41,-1.12 -2.74,0 -5.22,0.49 -7.44,1.47 -2.22,0.97 -4.07,2.3 -5.57,3.96 -1.51,1.66 -2.66,3.57 -3.48,5.73 -0.81,2.15 -1.22,4.4 -1.22,6.75zm102.24 -32.3l-23.59 0 0 -7.83 55.49 0 0 7.83 -23.59 0 0 57.74 -8.31 0 0 -57.74zm43.12 7.64l7.83 0 0 11.05c2.02,-4.04 4.76,-7.06 8.22,-9.05 3.46,-1.99 7.21,-2.98 11.26,-2.98l0 8.51c-2.16,0 -4.39,0.41 -6.71,1.22 -2.31,0.82 -4.42,2.01 -6.31,3.58 -1.89,1.56 -3.44,3.5 -4.65,5.82 -1.21,2.32 -1.81,5.01 -1.81,8.07l0 23.88 -7.83 0 0 -50.1zm85.02 50.1l-7.83 0 0 -9.59c-1.96,3.26 -4.57,5.84 -7.83,7.73 -3.27,1.9 -6.95,2.84 -11.06,2.84 -2.81,0 -5.32,-0.47 -7.54,-1.42 -2.22,-0.94 -4.09,-2.23 -5.63,-3.86 -1.53,-1.63 -2.69,-3.57 -3.47,-5.83 -0.78,-2.25 -1.18,-4.68 -1.18,-7.29l0 -32.68 7.83 0 0 31.12c0,4.11 1.18,7.22 3.53,9.34 2.35,2.12 5.38,3.18 9.1,3.18 2.28,0 4.39,-0.53 6.31,-1.61 1.93,-1.08 3.61,-2.48 5.04,-4.21 1.44,-1.73 2.6,-3.65 3.48,-5.77 0.88,-2.12 1.35,-4.26 1.42,-6.41l0 -25.64 7.83 0 0 50.1zm16.21 -36.4c0,-4.51 1.68,-8.08 5.04,-10.72 3.36,-2.64 7.94,-3.96 13.75,-3.96 5.74,0 10.31,1.3 13.7,3.91 3.39,2.61 5.19,6.2 5.38,10.77l-8.32 0c-0.13,-2.22 -1.12,-4 -2.98,-5.34 -1.86,-1.33 -4.29,-2 -7.29,-2 -7.31,0 -10.96,2.35 -10.96,7.04 0,1.63 0.44,2.94 1.32,3.92 0.88,0.98 2.04,1.78 3.47,2.4 1.44,0.62 3.08,1.12 4.94,1.51 1.86,0.39 3.74,0.8 5.63,1.23 1.89,0.42 3.77,0.93 5.63,1.51 1.86,0.59 3.51,1.39 4.94,2.4 1.44,1.01 2.59,2.3 3.48,3.87 0.88,1.56 1.32,3.52 1.32,5.87 0,4.63 -1.72,8.25 -5.14,10.86 -3.43,2.61 -8.21,3.92 -14.34,3.92 -3.13,0 -5.97,-0.36 -8.51,-1.08 -2.55,-0.72 -4.72,-1.71 -6.51,-2.98 -1.8,-1.28 -3.18,-2.83 -4.16,-4.65 -0.98,-1.83 -1.47,-3.85 -1.47,-6.07l8.42 0c0.91,4.96 5.12,7.44 12.62,7.44 7.18,0 10.77,-2.22 10.77,-6.66 0,-2.15 -0.77,-3.73 -2.3,-4.74 -1.54,-1.02 -3.43,-1.82 -5.68,-2.4 -2.25,-0.59 -4.71,-1.11 -7.39,-1.57 -2.67,-0.45 -5.14,-1.19 -7.39,-2.2 -2.25,-1.01 -4.14,-2.46 -5.67,-4.36 -1.54,-1.89 -2.3,-4.53 -2.3,-7.92zm67.98 -29.17l0 15.47 14.78 0 0 7.33 -14.78 0 0 28.19c0,3.33 0.69,5.55 2.06,6.66 1.37,1.11 3.19,1.66 5.48,1.66 2.02,0 4.43,-0.26 7.24,-0.78l0 7.34c-1.5,0.19 -2.99,0.37 -4.45,0.54 -1.47,0.16 -2.86,0.24 -4.16,0.24 -2.03,0 -3.9,-0.23 -5.63,-0.68 -1.73,-0.46 -3.21,-1.26 -4.45,-2.4 -1.24,-1.14 -2.21,-2.71 -2.89,-4.7 -0.69,-1.99 -1.03,-4.49 -1.03,-7.49l0 -28.58 -9.79 0 0 -7.33 9.79 0 0 -15.47 7.83 0zm52.82 17.81c0,-5.93 2.07,-10.55 6.21,-13.85 4.14,-3.29 9.9,-4.94 17.27,-4.94 3.66,0 6.94,0.46 9.84,1.37 2.9,0.92 5.38,2.22 7.44,3.92 2.05,1.69 3.65,3.72 4.79,6.07 1.15,2.34 1.78,4.99 1.91,7.92l-9.3 0c-0.06,-1.43 -0.4,-2.83 -1.02,-4.2 -0.62,-1.38 -1.55,-2.6 -2.79,-3.68 -1.24,-1.07 -2.81,-1.94 -4.7,-2.59 -1.89,-0.65 -4.14,-0.98 -6.75,-0.98 -4.24,0 -7.65,0.97 -10.23,2.89 -2.58,1.92 -3.87,4.62 -3.87,8.07 0,2.03 0.46,3.71 1.37,5.04 0.92,1.34 2.16,2.45 3.72,3.33 1.57,0.88 3.38,1.6 5.43,2.16 2.06,0.55 4.2,1.09 6.42,1.61 2.74,0.59 5.48,1.22 8.22,1.91 2.74,0.68 5.22,1.66 7.44,2.93 2.21,1.28 4.01,2.96 5.38,5.04 1.37,2.09 2.05,4.87 2.05,8.32 0,5.81 -2,10.33 -6.02,13.56 -4.01,3.23 -9.86,4.84 -17.56,4.84 -4.05,0 -7.7,-0.45 -10.97,-1.37 -3.26,-0.91 -6.05,-2.22 -8.36,-3.91 -2.32,-1.7 -4.11,-3.75 -5.39,-6.17 -1.27,-2.41 -1.9,-5.12 -1.9,-8.12l9.29 0c0.59,3.72 2.37,6.61 5.34,8.66 2.96,2.06 6.9,3.08 11.79,3.08 4.63,0 8.29,-0.86 10.96,-2.59 2.68,-1.73 4.01,-4.03 4.01,-6.9 0,-2.02 -0.45,-3.69 -1.37,-4.99 -0.91,-1.31 -2.15,-2.38 -3.71,-3.23 -1.57,-0.85 -3.38,-1.53 -5.44,-2.06 -2.05,-0.52 -4.19,-1.01 -6.41,-1.46 -2.74,-0.59 -5.48,-1.24 -8.22,-1.96 -2.74,-0.72 -5.22,-1.76 -7.44,-3.13 -2.21,-1.37 -4.01,-3.22 -5.38,-5.53 -1.37,-2.32 -2.05,-5.34 -2.05,-9.06zm63.09 -17.91c0,-1.63 0.55,-3 1.66,-4.11 1.11,-1.11 2.48,-1.66 4.11,-1.66 1.63,0 3,0.55 4.11,1.66 1.11,1.11 1.66,2.48 1.66,4.11 0,1.63 -0.55,3.01 -1.66,4.11 -1.11,1.11 -2.48,1.67 -4.11,1.67 -1.63,0 -3,-0.56 -4.11,-1.67 -1.11,-1.1 -1.66,-2.48 -1.66,-4.11zm1.86 15.57l7.83 0 0 50.1 -7.83 0 0 -50.1zm25.9 0l7.83 0 0 9.59c1.95,-3.27 4.56,-5.84 7.83,-7.74 3.26,-1.89 6.94,-2.83 11.05,-2.83 2.88,0 5.41,0.47 7.59,1.42 2.19,0.94 4.04,2.23 5.58,3.86 1.53,1.63 2.69,3.57 3.47,5.82 0.79,2.26 1.18,4.69 1.18,7.3l0 32.68 -7.83 0 0 -31.12c0,-4.11 -1.18,-7.23 -3.53,-9.34 -2.35,-2.13 -5.38,-3.19 -9.1,-3.19 -2.28,0 -4.38,0.54 -6.31,1.62 -1.93,1.08 -3.61,2.48 -5.04,4.21 -1.44,1.73 -2.58,3.65 -3.43,5.77 -0.84,2.12 -1.33,4.26 -1.46,6.41l0 25.64 -7.83 0 0 -50.1zm58.68 25.05c0,-3.65 0.69,-7.06 2.06,-10.23 1.37,-3.16 3.23,-5.92 5.58,-8.27 2.35,-2.35 5.1,-4.19 8.27,-5.53 3.16,-1.34 6.54,-2 10.13,-2 2.93,0 5.74,0.44 8.41,1.32 2.68,0.88 5.09,2.12 7.25,3.72 2.15,1.59 3.98,3.49 5.48,5.67 1.5,2.19 2.57,4.59 3.23,7.2l-9.01 0c-1.11,-2.94 -3,-5.37 -5.67,-7.29 -2.68,-1.93 -5.91,-2.89 -9.69,-2.89 -2.68,0 -5.11,0.5 -7.29,1.51 -2.19,1.02 -4.05,2.37 -5.58,4.07 -1.54,1.69 -2.71,3.65 -3.53,5.87 -0.81,2.22 -1.22,4.5 -1.22,6.85 0,2.35 0.41,4.62 1.22,6.8 0.82,2.19 1.99,4.13 3.53,5.82 1.53,1.7 3.39,3.06 5.58,4.07 2.18,1.01 4.61,1.51 7.29,1.51 3.78,0 7.01,-0.94 9.69,-2.83 2.67,-1.9 4.56,-4.31 5.67,-7.25l9.01 0c-0.66,2.61 -1.73,5.01 -3.23,7.2 -1.5,2.18 -3.33,4.06 -5.48,5.62 -2.16,1.57 -4.57,2.79 -7.25,3.67 -2.67,0.88 -5.48,1.33 -8.41,1.33 -3.59,0 -6.97,-0.69 -10.13,-2.06 -3.17,-1.37 -5.92,-3.23 -8.27,-5.58 -2.35,-2.35 -4.21,-5.09 -5.58,-8.22 -1.37,-3.13 -2.06,-6.49 -2.06,-10.08zm68.97 2.25c0.26,2.22 0.86,4.32 1.81,6.31 0.94,1.99 2.17,3.7 3.67,5.14 1.5,1.44 3.29,2.58 5.38,3.43 2.09,0.84 4.37,1.27 6.85,1.27 3.39,0 6.27,-0.7 8.61,-2.11 2.35,-1.4 4.11,-3.14 5.29,-5.23l9.49 0c-1.5,4.44 -4.29,8.02 -8.37,10.77 -4.07,2.73 -9.08,4.11 -15.02,4.11 -3.59,0 -6.96,-0.69 -10.13,-2.06 -3.16,-1.37 -5.92,-3.23 -8.27,-5.58 -2.35,-2.35 -4.21,-5.09 -5.58,-8.22 -1.37,-3.13 -2.05,-6.49 -2.05,-10.08 0,-3.65 0.65,-7.06 1.95,-10.23 1.31,-3.16 3.1,-5.92 5.39,-8.27 2.28,-2.35 4.97,-4.19 8.07,-5.53 3.1,-1.34 6.45,-2 10.03,-2 3.53,0 6.79,0.52 9.79,1.56 3,1.05 5.63,2.51 7.88,4.41 2.25,1.89 4.08,4.16 5.48,6.8 1.4,2.64 2.23,5.59 2.5,8.85 0.13,1.05 0.19,2 0.19,2.84 0,0.2 -0.01,0.61 -0.05,1.23 -0.03,0.62 -0.08,1.48 -0.14,2.59l-42.77 0zm33.86 -6.66c-0.2,-2.15 -0.73,-4.09 -1.61,-5.82 -0.89,-1.73 -2.06,-3.21 -3.53,-4.45 -1.47,-1.24 -3.18,-2.19 -5.14,-2.84 -1.95,-0.65 -4.11,-0.98 -6.46,-0.98 -2.28,0 -4.37,0.36 -6.26,1.08 -1.89,0.72 -3.55,1.71 -4.99,2.98 -1.44,1.28 -2.63,2.76 -3.57,4.46 -0.95,1.69 -1.62,3.55 -2.01,5.57l33.57 0zm44.59 21.63c5.35,-4.04 10.26,-7.74 14.73,-11.1 4.47,-3.36 8.31,-6.55 11.5,-9.55 3.2,-3 5.7,-5.9 7.49,-8.71 1.79,-2.8 2.69,-5.67 2.69,-8.61 0,-4.04 -1.14,-7.13 -3.42,-9.25 -2.29,-2.12 -5.68,-3.18 -10.18,-3.18 -8.09,0 -12.53,3.98 -13.31,11.94l-8.81 0c0.52,-6.92 2.59,-12.02 6.21,-15.32 3.63,-3.29 8.93,-4.94 15.91,-4.94 3.46,0 6.56,0.48 9.3,1.42 2.74,0.95 5.08,2.3 7.04,4.06 1.96,1.76 3.46,3.92 4.5,6.46 1.05,2.55 1.57,5.39 1.57,8.52 0,3.78 -0.83,7.26 -2.5,10.42 -1.66,3.16 -3.93,6.23 -6.8,9.2 -2.87,2.97 -6.23,5.95 -10.08,8.96 -3.85,3 -7.93,6.23 -12.23,9.68l31.9 0 0 7.83 -45.51 0 0 -7.83zm85.21 8.81c-4.3,0 -8.17,-0.78 -11.59,-2.35 -3.43,-1.56 -6.32,-3.8 -8.67,-6.7 -2.35,-2.9 -4.14,-6.44 -5.38,-10.62 -1.24,-4.17 -1.86,-8.87 -1.86,-14.09 0,-5.22 0.62,-9.92 1.86,-14.1 1.24,-4.17 3.03,-7.71 5.38,-10.62 2.35,-2.9 5.24,-5.13 8.67,-6.7 3.42,-1.57 7.29,-2.35 11.59,-2.35 4.31,0 8.16,0.78 11.55,2.35 3.39,1.57 6.26,3.8 8.61,6.7 2.35,2.91 4.15,6.45 5.39,10.62 1.24,4.18 1.86,8.88 1.86,14.1 0,5.22 -0.62,9.92 -1.86,14.09 -1.24,4.18 -3.04,7.72 -5.39,10.62 -2.35,2.9 -5.22,5.14 -8.61,6.7 -3.39,1.57 -7.24,2.35 -11.55,2.35zm0 -8.32c6.27,0 10.93,-2.2 14,-6.6 3.06,-4.41 4.6,-10.69 4.6,-18.84 0,-8.16 -1.54,-14.44 -4.6,-18.84 -3.07,-4.41 -7.73,-6.61 -14,-6.61 -6.26,0 -10.94,2.2 -14.04,6.61 -3.1,4.4 -4.65,10.68 -4.65,18.84 0,8.15 1.55,14.43 4.65,18.84 3.1,4.4 7.78,6.6 14.04,6.6zm67.11 8.32c-4.31,0 -8.18,-0.78 -11.6,-2.35 -3.43,-1.56 -6.31,-3.8 -8.66,-6.7 -2.35,-2.9 -4.14,-6.44 -5.39,-10.62 -1.23,-4.17 -1.86,-8.87 -1.86,-14.09 0,-5.22 0.63,-9.92 1.86,-14.1 1.25,-4.17 3.04,-7.71 5.39,-10.62 2.35,-2.9 5.23,-5.13 8.66,-6.7 3.42,-1.57 7.29,-2.35 11.6,-2.35 4.3,0 8.15,0.78 11.54,2.35 3.4,1.57 6.27,3.8 8.62,6.7 2.35,2.91 4.14,6.45 5.38,10.62 1.24,4.18 1.86,8.88 1.86,14.1 0,5.22 -0.62,9.92 -1.86,14.09 -1.24,4.18 -3.03,7.72 -5.38,10.62 -2.35,2.9 -5.22,5.14 -8.62,6.7 -3.39,1.57 -7.24,2.35 -11.54,2.35zm0 -8.32c6.26,0 10.93,-2.2 13.99,-6.6 3.07,-4.41 4.6,-10.69 4.6,-18.84 0,-8.16 -1.53,-14.44 -4.6,-18.84 -3.06,-4.41 -7.73,-6.61 -13.99,-6.61 -6.27,0 -10.95,2.2 -14.05,6.61 -3.1,4.4 -4.65,10.68 -4.65,18.84 0,8.15 1.55,14.43 4.65,18.84 3.1,4.4 7.78,6.6 14.05,6.6zm39.6 -0.49c5.35,-4.04 10.26,-7.74 14.73,-11.1 4.47,-3.36 8.3,-6.55 11.5,-9.55 3.2,-3 5.69,-5.9 7.49,-8.71 1.79,-2.8 2.69,-5.67 2.69,-8.61 0,-4.04 -1.15,-7.13 -3.43,-9.25 -2.28,-2.12 -5.68,-3.18 -10.18,-3.18 -8.09,0 -12.52,3.98 -13.31,11.94l-8.81 0c0.53,-6.92 2.6,-12.02 6.22,-15.32 3.62,-3.29 8.92,-4.94 15.9,-4.94 3.46,0 6.56,0.48 9.3,1.42 2.74,0.95 5.09,2.3 7.05,4.06 1.95,1.76 3.46,3.92 4.5,6.46 1.04,2.55 1.56,5.39 1.56,8.52 0,3.78 -0.83,7.26 -2.49,10.42 -1.66,3.16 -3.93,6.23 -6.8,9.2 -2.87,2.97 -6.23,5.95 -10.08,8.96 -3.85,3 -7.93,6.23 -12.24,9.68l31.91 0 0 7.83 -45.51 0 0 -7.83z"/>
   <path fill="#9C1C7E" fill-rule="nonzero" d="M1933.43 239.13l0 -49.24 21.82 0c4.39,0 7.73,0.45 10.01,1.33 2.28,0.88 4.1,2.44 5.47,4.68 1.36,2.23 2.04,4.71 2.04,7.41 0,3.5 -1.14,6.44 -3.4,8.84 -2.25,2.4 -5.74,3.91 -10.46,4.56 1.73,0.83 3.04,1.65 3.93,2.45 1.9,1.74 3.7,3.93 5.39,6.56l8.51 13.41 -8.13 0 -6.51 -10.25c-1.9,-2.97 -3.47,-5.22 -4.69,-6.79 -1.24,-1.57 -2.34,-2.66 -3.31,-3.29 -0.97,-0.62 -1.96,-1.06 -2.97,-1.31 -0.74,-0.15 -1.94,-0.23 -3.62,-0.23l-7.55 0 0 21.87 -6.53 0zm6.53 -27.51l13.99 0c2.98,0 5.29,-0.31 6.96,-0.93 1.68,-0.6 2.95,-1.59 3.81,-2.95 0.87,-1.36 1.31,-2.82 1.31,-4.42 0,-2.32 -0.84,-4.25 -2.52,-5.75 -1.69,-1.5 -4.35,-2.25 -7.98,-2.25l-15.57 0 0 16.3z"/>
   <path fill="none" stroke="#8F1F8D" stroke-width="2.71" stroke-miterlimit="22.9256" d="M1955.09 170.52c24.29,0 43.99,19.7 43.99,43.99 0,24.29 -19.7,43.99 -43.99,43.99 -24.3,0 -43.99,-19.7 -43.99,-43.99 0,-24.29 19.69,-43.99 43.99,-43.99z"/>
   <g>
    <path fill="#8F1F8D" d="M216.75 270.18l83.62 0 -25.77 76.68 -83.68 0 25.83 -76.68zm109.35 0l83.92 0 -25.83 76.68 -83.85 0 25.76 -76.68zm49.67 101.68l-26.7 79.23 -83.76 0 26.63 -79.23 83.83 0zm-136.19 79.23l-83.78 0 26.7 -79.23 83.7 0 -26.62 79.23z"/>
    <rect fill="none" stroke="#FEFEFE" stroke-width="2.71" stroke-miterlimit="22.9256" x="70.44" y="148.16" width="424.95" height="424.95"/>
   </g>
   <rect fill="none" x="463.87" y="154.16" width="1556.46" height="309.94"/>
  </g>
  <rect fill="none" width="2090.77" height="763.05"/>
 </g>
</svg>
