<?xml version="1.0" encoding="utf-8"?>
<!-- Generator: Adobe Illustrator 27.5.0, SVG Export Plug-In . SVG Version: 6.00 Build 0)  -->
<svg version="1.1" xmlns="http://www.w3.org/2000/svg" xmlns:xlink="http://www.w3.org/1999/xlink" x="0px" y="0px"
	 viewBox="0 0 2200 2200" style="enable-background:new 0 0 2200 2200;" xml:space="preserve">
<g id="background">
	<rect style="fill:#f2f2f2;" />
</g>
<g id="Objects">
	<g>
		<g>
			<path style="fill:#1d9f66;" d="M1717.132,1678l-79.324,79.323c0,0-330.143,330.143-944.728-284.442
				C46.575,826.376,376.718,496.213,376.718,496.213l79.303-79.303c33.339-33.339,87.41-33.339,120.748,0l283.388,283.388
				c33.339,33.339,33.339,87.39,0,120.728L747.82,933.364c0,0,58.327,144.663,188.986,275.322
				c130.659,130.679,263.871,177.515,263.871,177.515l112.318-112.318c33.339-33.339,87.41-33.339,120.748,0l283.388,283.388
				C1750.47,1590.61,1750.47,1644.661,1717.132,1678z"/>
			<path style="fill:#3B9E63;" d="M860.16,821.023L751.739,929.443c-10.923-21.727-16.191-34.781-16.191-34.781l107.563-107.563
				c22.76-22.76,29.292-55.604,19.586-84.148C893.474,736.45,892.626,788.557,860.16,821.023z"/>
			<path style="fill:#3B9E63;" d="M1717.13,1678.002l-79.323,79.323c0,0-330.143,330.143-944.725-284.439
				c-412.418-412.418-427.392-696.11-384.169-847.477c-32.189,150.204,1.504,413.11,374.224,785.83
				c588.455,588.464,904.565,272.353,904.565,272.353l75.946-75.955c22.806-22.806,29.319-55.733,19.531-84.314l33.951,33.951
				C1750.472,1590.606,1750.472,1644.66,1717.13,1678.002z"/>
			<path style="fill:#138e57;" d="M403.425,566.362c-5.83,3.168-12.18-3.336-8.909-9.109c3.834-6.767,8.702-13.803,14.393-18.782
				c10.972-9.6,64.756-57.426,91.649-81.35c8.596-7.647,21.685-7.155,29.689,1.109l118.229,122.064
				c5.498,5.677-1.264,14.661-8.232,10.932C583.327,560.768,484.389,522.365,403.425,566.362z"/>
			<path style="fill:#138e57;" d="M1265.641,1420.665c-5.83,3.168-12.18-3.336-8.909-9.109c3.834-6.767,8.702-13.803,14.393-18.782
				c10.972-9.6,64.756-57.426,91.649-81.35c8.596-7.647,21.685-7.155,29.689,1.109l118.229,122.064
				c5.498,5.677-1.264,14.661-8.232,10.932C1445.543,1415.072,1346.605,1376.669,1265.641,1420.665z"/>
			<path style="fill:#3B9E63;" d="M822.616,459.249c-4.722,0-9.445-1.801-13.048-5.404c-7.206-7.206-7.206-18.888,0-26.094
				l163.296-163.296c7.206-7.206,18.889-7.206,26.095,0s7.206,18.888,0,26.094L835.664,453.845
				C832.061,457.448,827.338,459.249,822.616,459.249z"/>
			<path style="fill:#3B9E63;" d="M707.307,390.061c-1.532,0-3.088-0.192-4.64-0.594c-9.865-2.555-15.79-12.624-13.235-22.489
				l39.671-153.147c2.556-9.865,12.62-15.795,22.49-13.235c9.865,2.555,15.79,12.624,13.235,22.489l-39.671,153.147
				C723.002,384.545,715.514,390.061,707.307,390.061z"/>
			<path style="fill:#3B9E63;" d="M889.951,587.491c-8.207,0-15.695-5.515-17.85-13.829c-2.555-9.865,3.37-19.934,13.235-22.489
				l153.147-39.671c9.869-2.555,19.934,3.37,22.49,13.235c2.555,9.865-3.37,19.934-13.235,22.489l-153.147,39.671
				C893.04,587.299,891.482,587.491,889.951,587.491z"/>
			<path style="fill:#3B9E63;" d="M1668.616,1305.26c-4.722,0-9.445-1.802-13.048-5.404c-7.206-7.206-7.206-18.888,0-26.094
				l163.296-163.296c7.206-7.206,18.889-7.206,26.095,0s7.206,18.888,0,26.094l-163.296,163.296
				C1678.061,1303.458,1673.338,1305.26,1668.616,1305.26z"/>
			<path style="fill:#3B9E63;" d="M1553.307,1236.071c-1.532,0-3.088-0.192-4.64-0.594c-9.865-2.555-15.79-12.624-13.235-22.489
				l39.671-153.147c2.556-9.865,12.62-15.795,22.49-13.235c9.865,2.555,15.79,12.624,13.235,22.489l-39.671,153.147
				C1569.003,1230.556,1561.514,1236.071,1553.307,1236.071z"/>
			<path style="fill:#3B9E63;" d="M1735.952,1433.502c-8.207,0-15.695-5.515-17.85-13.829c-2.555-9.865,3.37-19.933,13.235-22.489
				l153.147-39.671c9.869-2.555,19.934,3.37,22.49,13.235c2.555,9.865-3.37,19.934-13.235,22.489l-153.147,39.671
				C1739.04,1433.31,1737.482,1433.502,1735.952,1433.502z"/>
		</g>
		<ellipse style="fill:#E0E0E0;" cx="1048.628" cy="1968.88" rx="580.898" ry="31.12"/>
	</g>
</g>
</svg>
